<?xml version="1.0" encoding="UTF-8"?>
<svg id="logo" xmlns="http://www.w3.org/2000/svg" viewBox="0 0 350 44.69">
  <defs>
    <style>
      .cls-1 {
        fill: #c5e2eb;
      }

      .cls-2 {
        fill: #1c56a6;
      }

      .cls-3 {
        fill: #399dbf;
      }
    </style>
  </defs>
  <path class="cls-1" d="M39.55,39.36L55.89,1.24c.33-.76-.57-1.46-1.23-.95L1.28,41.81c-.6.47-.27,1.43.49,1.43h31.89c2.56,0,4.88-1.53,5.89-3.88Z"/>
  <path class="cls-2" d="M87.48,39.36L71.15,1.24c-.33-.76.57-1.46,1.23-.95l53.38,41.52c.6.47.27,1.43-.49,1.43h-31.89c-2.56,0-4.88-1.53-5.89-3.88Z"/>
  <path class="cls-3" d="M46.21,38.78L62.52.72c.38-.88,1.62-.88,2,0l16.31,38.06c.91,2.11-.64,4.47-2.95,4.47h-28.73c-2.3,0-3.85-2.35-2.95-4.47Z"/>
  <path class="cls-2" d="M182.67,43.45h4.05c.29,0,.52-.24.52-.53-.01-2.1-.05-10.17-.05-18.37s.05-15.85.06-18.82c0-.29.22-.52.5-.52,1.87-.04,6.34-.17,9.57,1.02,2.85,1.05,4.79,3.35,4.79,6.47,0,1.93-.41,3.71-1.26,5.12-2.02,3.35-5.91,4.99-7.56,5.59-.34.12-.45.56-.21.84,2.66,3.05,14.82,16.98,16.98,19.45.18.21.5.24.71.06l3-2.48c.23-.19.26-.54.05-.76l-14.07-15.44c-.23-.25-.17-.65.12-.81,1.85-1.07,7.46-4.88,7.42-11.85,0-5.54-3.39-9.02-8.79-10.47-4.26-1.15-10.58-.95-15.8-.79-.28,0-.5.24-.5.53.01,2.7.1,12.51.09,21.95,0,8.73-.09,17.15-.12,19.3,0,.29.23.53.52.53Z"/>
  <path class="cls-2" d="M223.07,1.16h3.96c.29,0,.52.23.52.52,0,2.57-.03,14.04-.08,22.35-.04,8.12.09,16.63.13,18.81,0,.29-.23.53-.51.53l-4.04.02c-.29,0-.52-.24-.52-.53.02-2.1.09-10.12.12-18.78.03-8.87-.06-19.88-.09-22.4,0-.29.23-.53.52-.53Z"/>
  <path class="cls-2" d="M277.74,22.35c-.05-5.45-1.47-10.65-4.36-14.53C269.71,2.91,264.13.03,257.69,0c-6.8-.03-11.89,3.02-15.63,7.8-3.08,3.94-4.51,9.03-4.51,14.54,0,5.83,1.86,11.28,5.13,15.26,3.66,4.45,9.17,7.11,15,7.09,5.29-.02,10.04-2.03,13.59-5.59,4.07-4.09,6.53-9.75,6.47-16.76ZM267.76,35.87c-2.62,2.88-6.17,4.51-10.08,4.52-4.31.02-8.38-2.13-11.09-5.73-2.42-3.22-3.75-7.64-3.75-12.35,0-4.46,1.19-8.62,3.37-11.77,2.71-3.91,6.65-6.32,11.47-6.32s8.8,2.45,11.51,6.42c2.14,3.14,3.24,7.26,3.27,11.66.04,5.49-1.69,10.25-4.7,13.56Z"/>
  <path class="cls-2" d="M307.29,4.79c-.08-.74-.21-2-.32-3.42-.02-.26-.22-.46-.47-.48-4.85-.38-8.63-.27-11.55.48-7.49,1.92-9.38,6.86-9.73,9.93-.7,6.41,3.69,9.46,8.31,11.87,4.8,2.51,9.85,4.33,9.7,9.23.12,8.8-15.27,7.35-18.55,6.94-.32-.04-.59.22-.58.55.04.73.1,2.01.18,3.3.02.25.21.46.46.49,5.56.62,23.24,1.33,23.65-11.56.43-13.44-19.07-11.82-17.97-20.94.93-7.69,13.26-6.28,16.29-5.82.33.05.63-.23.59-.57Z"/>
  <path class="cls-2" d="M316.35,1.82l.04,3.24c0,.29.23.52.52.52l23.27-.05c.43,0,.67.5.41.85-1.69,2.17-6.38,8.22-11.29,14.74-5.59,7.43-13.36,17.05-14.72,18.72-.13.16-.15.37-.07.55l1.19,2.62c.08.19.27.3.47.3l32.32-.03c.28,0,.51-.23.52-.52l.03-3.53c0-.29-.23-.53-.52-.53l-26.12.07c-.43,0-.67-.51-.41-.85l25.96-33.23c.12-.16.15-.38.06-.56l-1.22-2.53c-.09-.18-.27-.29-.46-.29l-29.45-.03c-.29,0-.52.24-.52.53Z"/>
  <path class="cls-2" d="M174.63,41.25L156.52.84c-.08-.19-.27-.31-.47-.31h-4.27c-.2,0-.39.12-.47.31l-18.11,40.41c-.11.25-.01.55.23.68l2.91,1.53.89.5c.26.15.6.04.72-.24l15.59-35.46c.08-.17.22-.26.37-.29.15.03.29.13.37.29l15.59,35.46c.12.28.46.39.72.24l.89-.5,2.91-1.53c.24-.13.35-.43.23-.68Z"/>
</svg>