<svg width="194" height="49" viewBox="0 0 194 49" fill="none" xmlns="http://www.w3.org/2000/svg">
<path fill-rule="evenodd" clip-rule="evenodd" d="M146.51 3.22918C146.51 1.6641 145.307 0.5 143.696 0.5C142.085 0.5 140.882 1.6641 140.882 3.22918C140.882 4.79425 142.085 5.91956 143.696 5.91956C145.307 5.91956 146.51 4.79425 146.51 3.22918ZM145.992 9.99143C145.992 9.32132 145.449 8.77808 144.779 8.77808H142.58C141.91 8.77808 141.367 9.32132 141.367 9.99143V29.825C141.367 30.4951 141.91 31.0384 142.58 31.0384H144.779C145.449 31.0384 145.992 30.4951 145.992 29.825V9.99143ZM75.2366 2.91229H65.0376C64.3676 2.91229 63.8244 3.45535 63.8243 4.12536L63.8184 29.8247C63.8182 30.495 64.3615 31.0384 65.0317 31.0384H75.2754C80.8197 31.0384 84.7208 27.7077 84.7208 22.8444C84.7208 19.3908 82.23 16.5776 79.1765 15.8533C81.389 15.0448 83.3169 12.6778 83.3169 9.90338C83.3169 5.72554 79.9787 2.91229 75.2366 2.91229ZM78.7754 10.5889C78.7754 12.7554 76.9704 14.2429 74.5573 14.2429V14.2494H68.5666V6.93491H74.5573C76.9639 6.93491 78.7754 8.42238 78.7754 10.5889ZM80.024 22.521C80.024 25.1338 77.8567 27.0222 74.8808 27.0222H68.5731V18.1039H74.8808C77.8567 18.1039 80.024 19.9082 80.024 22.521ZM98.4752 8.45471C92.1222 8.45471 87.5031 13.1952 87.5031 19.9082H87.4966C87.4966 26.6212 91.7987 31.3617 98.5916 31.3617C103.663 31.3617 107.045 28.7614 108.405 25.2512C108.685 24.5286 108.106 23.808 107.331 23.808H105.06C104.496 23.808 104.023 24.2067 103.782 24.7167C102.972 26.43 101.11 27.462 98.5916 27.462C94.9752 27.462 92.3616 25.0109 92.0834 20.749H107.856C108.466 20.749 108.988 20.2941 109.02 19.6846C109.351 13.2963 105.105 8.45471 98.4752 8.45471ZM98.4752 12.154C101.807 12.154 104.104 14.12 104.181 17.2566H92.284C93.0085 13.9648 95.1434 12.154 98.4752 12.154ZM131.275 18.3431H117.766V29.825C117.766 30.4951 117.223 31.0384 116.553 31.0384H114.238C113.568 31.0384 113.024 30.4951 113.024 29.825V4.12564C113.024 3.45552 113.568 2.91229 114.238 2.91229H116.553C117.223 2.91229 117.766 3.45552 117.766 4.12563V14.2817H131.275V4.12564C131.275 3.45552 131.818 2.91229 132.488 2.91229H134.803C135.473 2.91229 136.017 3.45552 136.017 4.12564V29.825C136.017 30.4951 135.473 31.0384 134.803 31.0384H132.488C131.818 31.0384 131.275 30.4951 131.275 29.825V18.3431ZM149.238 9.88442C149.028 9.35351 149.419 8.778 149.99 8.778H153.223C153.559 8.778 153.86 8.9856 153.98 9.29961L159.934 24.972L165.789 9.56042C165.968 9.08941 166.419 8.778 166.923 8.778H169.128C169.984 8.778 170.571 9.64126 170.256 10.4376L162.31 30.5269C162.188 30.8355 161.89 31.0383 161.558 31.0383H158.155C157.823 31.0383 157.525 30.8355 157.403 30.5269L149.238 9.88442ZM182.764 8.45471C176.411 8.45471 171.792 13.1952 171.792 19.9082H171.786C171.786 26.6212 176.088 31.3617 182.881 31.3617C187.952 31.3617 191.334 28.7614 192.694 25.2512C192.974 24.5286 192.395 23.808 191.62 23.808H189.35C188.785 23.808 188.313 24.2067 188.072 24.7167C187.262 26.43 185.399 27.462 182.881 27.462C179.264 27.462 176.651 25.0109 176.373 20.749H192.145C192.755 20.749 193.277 20.2941 193.309 19.6846C193.64 13.2963 189.394 8.45471 182.764 8.45471ZM182.764 12.154C186.096 12.154 188.393 14.12 188.47 17.2566H176.573C177.298 13.9648 179.433 12.154 182.764 12.154Z" fill="#0A544A"/>
<path d="M63.8258 42.0267C63.8258 39.3428 65.5855 37.7324 67.9727 37.7324C69.9847 37.7324 71.3756 38.9677 71.5438 40.6815H70.14C69.9717 39.6597 69.1307 38.9418 67.9662 38.9418C66.3683 38.9418 65.2297 40.093 65.2297 42.0202C65.2297 43.9474 66.3812 45.0986 67.9662 45.0986C69.1307 45.0986 70.017 44.3096 70.1723 43.2749H71.5762C71.3821 44.9757 70.0041 46.308 67.9662 46.308C65.6049 46.308 63.8193 44.7106 63.8193 42.0137L63.8258 42.0267Z" fill="#0A544A"/>
<path d="M72.3076 42.8991C72.3076 40.8942 73.7374 39.4844 75.7105 39.4844C77.6837 39.4844 79.1134 40.9007 79.1134 42.8991C79.1134 44.8975 77.6837 46.3138 75.7105 46.3138C73.7374 46.3138 72.3076 44.8975 72.3076 42.8991ZM75.7105 45.1432C76.888 45.1432 77.7225 44.2184 77.7225 42.8991C77.7225 41.5798 76.8815 40.6549 75.7105 40.6549C74.5396 40.6549 73.6985 41.5798 73.6985 42.8991C73.6985 44.2184 74.5266 45.1432 75.7105 45.1432Z" fill="#0A544A"/>
<path d="M80.3027 39.5814H81.6807V40.5903C82.0754 39.9694 82.9423 39.4844 83.8997 39.4844C85.3165 39.4844 86.384 40.4221 86.384 41.832V46.2168H85.006V42.1618C85.006 41.2758 84.4561 40.7002 83.5892 40.7002C82.4765 40.7002 81.6807 41.5604 81.6807 43.2289V46.2168H80.3027V39.5749V39.5814Z" fill="#0A544A"/>
<path d="M87.4655 44.0632H88.8111C88.8693 44.7681 89.3869 45.1885 90.1891 45.1885C90.9072 45.1885 91.3536 44.8393 91.3536 44.2895C91.3536 42.8603 87.6466 43.7722 87.6466 41.3405C87.6466 40.2863 88.5847 39.4844 89.9626 39.4844C91.483 39.4844 92.434 40.241 92.5504 41.5086H91.2177C91.1207 40.9072 90.6807 40.5709 89.9691 40.5709C89.3675 40.5709 88.9599 40.849 88.9599 41.2887C88.9599 42.5693 92.6863 41.638 92.6863 44.2507C92.6863 45.4989 91.6576 46.3138 90.1826 46.3138C88.6105 46.3138 87.5431 45.4278 87.459 44.0567L87.4655 44.0632Z" fill="#0A544A"/>
<path d="M93.7994 43.7993V39.5826H95.1774V43.56C95.1774 44.5172 95.7661 45.0927 96.6136 45.0927C97.7911 45.0927 98.5092 44.0709 98.5092 42.4412V39.5762H99.8872V46.218H98.5092V45.1251C98.1404 45.7847 97.3188 46.315 96.2772 46.315C94.8604 46.315 93.793 45.3773 93.793 43.7993H93.7994Z" fill="#0A544A"/>
<path d="M101.445 37.7383H102.823V46.2233H101.445V37.7383Z" fill="#0A544A"/>
<path d="M104.759 44.2125V40.7008H103.775V39.5885H104.759V38.2109H106.124V39.5885H107.599V40.7008H106.124V44.0961C106.124 44.7687 106.486 45.1244 107.01 45.1244C107.224 45.1244 107.489 45.0792 107.696 44.9951V46.1592C107.444 46.2562 107.165 46.3144 106.835 46.3144C105.645 46.3144 104.759 45.5836 104.759 44.219V44.2125Z" fill="#0A544A"/>
<path d="M109.383 37.1113C109.862 37.1113 110.224 37.4606 110.224 37.9262C110.224 38.3918 109.862 38.7281 109.383 38.7281C108.904 38.7281 108.542 38.3918 108.542 37.9262C108.542 37.4606 108.904 37.1113 109.383 37.1113ZM108.684 39.5818H110.062V46.2237H108.684V39.5818Z" fill="#0A544A"/>
<path d="M111.628 39.5814H113.006V40.5903C113.401 39.9694 114.267 39.4844 115.225 39.4844C116.642 39.4844 117.709 40.4221 117.709 41.832V46.2168H116.331V42.1618C116.331 41.2758 115.781 40.7002 114.914 40.7002C113.802 40.7002 113.006 41.5604 113.006 43.2289V46.2168H111.628V39.5749V39.5814Z" fill="#0A544A"/>
<path d="M119.132 46.4639H120.51C120.692 47.0395 121.229 47.4016 122.154 47.4016C123.292 47.4016 123.997 46.7678 123.997 45.7137V44.9958C123.577 45.5973 122.749 45.9659 121.888 45.9659C120.077 45.9659 118.815 44.6725 118.815 42.7646C118.815 40.8568 120.077 39.4922 121.863 39.4922C122.775 39.4922 123.564 39.8608 123.997 40.4364V39.5827H125.362V45.649C125.362 47.4857 123.984 48.5011 122.115 48.5011C120.497 48.5011 119.333 47.6991 119.126 46.4639H119.132ZM122.095 44.7824C123.208 44.7824 124.004 43.9223 124.004 42.7193C124.004 41.5164 123.215 40.6563 122.095 40.6563C120.976 40.6563 120.2 41.5164 120.2 42.7193C120.2 43.9223 120.989 44.7824 122.095 44.7824Z" fill="#0A544A"/>
<path fill-rule="evenodd" clip-rule="evenodd" d="M50.7112 21.8483L40.5551 4.25671C40.0928 3.4497 39.2269 2.95508 38.3025 2.95508H17.9771C17.0462 2.95508 16.1868 3.4497 15.7245 4.25671L14.7324 5.97404H12.7594C11.8286 5.97404 10.9694 6.46811 10.5073 7.27422L0.346608 24.8462C-0.115536 25.6523 -0.115536 26.6404 0.346608 27.4465L10.5073 45.0185C10.9694 45.8246 11.8351 46.3186 12.7594 46.3186H33.0742C34.005 46.3186 34.8642 45.8246 35.3264 45.0185L36.2941 43.3449H38.296C39.227 43.3449 40.0863 42.8502 40.5486 42.0432L50.7112 24.4516C51.1735 23.6446 51.1735 22.6553 50.7112 21.8483ZM36.9677 7.17693L46.3374 23.434C46.7636 24.1797 46.7636 25.0939 46.3374 25.8397L36.9677 42.0968C36.5415 42.8426 35.7492 43.2996 34.8909 43.2996H16.1575C15.3051 43.2996 14.5068 42.8426 14.0806 42.0968L4.71091 25.8397C4.28474 25.0939 4.28474 24.1797 4.71091 23.434L14.0806 7.17693C14.5068 6.43114 15.2991 5.97404 16.1575 5.97404H34.8909C35.7432 5.97404 36.5415 6.43114 36.9677 7.17693Z" fill="#0A544A"/>
<path fill-rule="evenodd" clip-rule="evenodd" d="M32.9107 29.401C32.6216 28.9008 32.0877 28.5927 31.51 28.5927H28.4908C27.913 28.5927 27.3791 28.9008 27.09 29.401L25.5821 32.0105C25.2927 32.5113 25.2927 33.1286 25.5821 33.6294L27.09 36.2389C27.3791 36.7391 27.913 37.0472 28.4908 37.0472H31.51C32.0877 37.0472 32.6216 36.7391 32.9107 36.2389L34.4186 33.6294C34.708 33.1286 34.708 32.5113 34.4186 32.0105L32.9107 29.401ZM36.6235 33.6294C36.9129 33.1286 36.9129 32.5113 36.6235 32.0105L34.0124 27.492C33.7234 26.9917 33.1894 26.6836 32.6117 26.6836H27.3891C26.8113 26.6836 26.2774 26.9917 25.9883 27.492L23.3772 32.0105C23.0878 32.5113 23.0878 33.1286 23.3772 33.6294L25.9883 38.1479C26.2774 38.6482 26.8113 38.9563 27.3891 38.9563H32.6117C33.1894 38.9563 33.7234 38.6482 34.0124 38.1479L36.6235 33.6294Z" fill="#0A544A"/>
</svg>