<?xml version="1.0" encoding="UTF-8"?>
<!--Generator: Adobe Illustrator 16.0.0, SVG Export Plug-In . SVG Version: 6.00 Build 0)-->
<!DOCTYPE svg PUBLIC "-//W3C//DTD SVG 1.1//EN" "http://www.w3.org/Graphics/SVG/1.1/DTD/svg11.dtd">
<svg version="1.1" id="Слой_1" xmlns="http://www.w3.org/2000/svg" xmlns:xlink="http://www.w3.org/1999/xlink" x="0px" y="0px" width="84.403px" height="77.32px" viewBox="345.29 -53.22 84.403 77.32" enable-background="new 345.29 -53.22 84.403 77.32" xml:space="preserve"><path fill="#0FAFA9" d="M419.59,24.1c10.51-27.07,11.971-51.53,8.25-77.32h-82.55V24.1"/><path fill="#3948A4" d="M378.79-24c0.239-0.47,0.851-0.77,1.46-0.91l-0.04,0.5c-0.17,0.45-1,0.99-1.771,0.71L378.79-24"/><path fill="#3948A4" d="M382.95-21.6c0.38,0.31,1.21,0.85,0.59,1.38l-0.46-0.1c-0.561-0.34-0.73-0.78-0.73-1.31L382.95-21.6"/><path fill="#3948A4" d="M376.87-34.18c0.399-0.95,0.97-0.95,1.7-1.11l-0.15,0.6c-0.33,0.67-1.09,1.16-2.01,0.83L376.87-34.18"/><path fill="#3948A4" d="M376.91-31.13c-0.301,0.39-0.78,1.22-1.7,0.89v-0.4c0.29-0.56,0.83-0.83,1.569-0.99L376.91-31.13"/><path fill="#3948A4" d="M374.641-26.64c0.25-0.46,1.08-1.15,2.01-0.97l-0.381,0.34c-0.25,0.33-0.319,1.15-1.33,0.82L374.641-26.64"/><path fill="#3948A4" d="M380.58-40.98c0.65-0.09,1.141,0.09,1.62,0.41l-0.06,0.61c-0.361,0.52-1.82-0.2-1.92-0.85L380.58-40.98"/><path fill="#3948A4" d="M385.65-42.63c0.899,0.65,0.25,1.26-0.42,1.91l-0.291-0.59c-0.31-0.74-0.16-1.06,0.15-1.49L385.65-42.63"/><path fill="#3948A4" d="M399.46-29.14c0.431-0.06,0.99-0.08,0.931-0.77c-0.021-0.3-0.121-0.53-0.351-0.61  c-1.36-0.49-2.771,0.24-3.39,0.66C396.41-29.7,398.24-28.87,399.46-29.14L399.46-29.14z M403.641-28.4  c0.5,0.68,1.92,2.04,1.469,2.66c-0.199,0.71-2.08,0.85-1.85,1.3c0.301,0.62,0.631,1.44,0.631,1.44s0.659,0.81-1.33,1.14  c-1.931,0.33,0.879,0.92,0.879,0.92c0.33,0.47-0.109,0.73-0.449,1.11c-0.25,0.5-0.28,0.85-0.1,1.41c0.83,1.13,0.799,1.9-0.431,2.27  c-0.851,0.26-4.11,0.57-6.05,0.38c-0.61-0.07-1.59-0.25-1.689,0.62c0.02,1.17-0.211,1.81-0.041,3.01  c-0.01,0.93,0.461,1.62,0.78,2.18c0.71,1,1.09,2.35,3.33,2.57c1.319,0.46,3.92-0.45,4.3,1.15c-0.38-0.02-0.71,0.18-1.9,0.29  c-5.149,0.07-5.09-0.34-8.199-0.44c-1.09,0.05-2.58,0.36-3.61,0.38l0.11-0.7c2.05-13.07,2.15-26.39,0.72-39.58  c0.89,0.03,0.931,0.99,0.42,1.66c0.16,0.72,0.399,0.14,0.53-0.12c-0.16-1.06,0.09-1.46,1.029-1.63c0.301,1.17-0.77,0.97,0.371,1.68  c-0.031-0.46-0.34-2.56,0.529-1.75c0.09,0.15-0.109,0.51,0.15,0.74c0.189-0.29,0.189-0.59,0.289-0.7  c1.101-0.51,0.221,1.21-0.289,1.34c0.31,0.58,0.84,0.19,0.91-0.14c-0.92-0.09,0.529-1.12,1.16-1.07c0.219,0.45-0.531,1.14-1.11,1.53  c0.44,0.03,0.21,1.56,0.63-0.12c0.09-0.23,0.529-0.63,1.07-1.25c0.859,1.47-0.141,0.21-0.36,1.03c-0.33,0.66,0.83,0.2,0.851-0.35  c-0.051-0.79,1.299-0.04,0.59,0.28c0.01,0.06-0.461,0.53,0.35,0.17c0.71-0.21,0.22,0.51,0.01,1.09c0.41-0.41,0.631-0.64,0.721-0.57  c0.17,0.12,0.14,0.77,0.51-0.11c1.43,0.61-0.17,1.01,0.51,1.17c0.359-0.21,0.4-0.75,0.93-0.38c0.391,0.43,0.07,0.59,0.15,0.9  c0.27-0.15,0.48-0.31,0.689-0.32c0.351,0.14,0.021,0.61,0.221,0.74c0.33-0.74,0.979,0.22,0.82,0.5  c-0.301,0.53,0.859-0.26,0.939,0.55c0.04,0.41-0.27,0.57-0.27,0.57c0.609-0.2,0.899,0.71,0.56,1.27c0.62-0.02,0.659,1.26,0.271,1.6  c0,0,0.51,0.18,0.31,1.1c-0.07,0.34-0.271,0.22-0.31,0.32c0.27,1.04,0.359,1.87,0.149,3.78c-0.06,0.55-0.21,0.85-0.729,1.25  C401.82-30.41,403.01-29.25,403.641-28.4L403.641-28.4z"/><path fill="#3948A4" d="M389.37-6.03c-1.21,0-2.33-0.05-3.67-0.03c-0.95-0.38-2.32,0-3.47,0c-0.521,0.01-0.91-0.42-1.4-0.18  c-0.34,0.11-2.971,0.19-3.24-0.08c1.131-1.52,6.26-0.71,7.07-2.25c1.449-0.79,1.449-2.06,1.689-3.3c0.91-0.43,0.43-1,0.641-1.5  c-0.16-0.62-0.1-1.46,0.05-2l-0.58,0.66c-0.271,0.07-0.569,0.23-0.8-0.15c0.59-0.95-0.631-0.75-0.631-1.41  c0.99-0.5,0.221-0.99,0.33-1.66c-0.649,0.27-0.619,0.93-1.279,0.99c-0.68-0.4,0.24-1.36-0.17-1.86c-0.221,0.17-0.71-0.29-0.92-0.05  c0.43,0.27,0.4,1.03,0.27,1.36c-0.25,0.09-0.51,0.08-0.74-0.229c0,0-0.119,0.34-0.51,0.41c-0.42-0.29,0.28-0.97,0.01-1.25  c-0.25,0.17-0.279,0.28-0.58,0.3c-0.35-0.15-0.26-0.8-0.279-1.17c-0.23,0.09-0.189,0.19-0.49,0.41c-0.311,0.16-0.75,0.47-1.67,0.09  c0.641-1.31,1.471-0.85,2.141-1.23c0.159-0.38,0.83-0.92,0.359-1.25c-1.08,0.21-1.08,1.35-2.41,1.16c-0.47-1,1.1-1.36,0.52-1.83  c0,0-0.959-0.56-0.949-0.22c0.02,0.98-0.061,1.63-0.891,1.89c-0.399-0.21-0.369-0.75-0.359-1.13c0.27-0.73-0.631-0.37-0.5-1.44  c-0.18,0.05-0.67,0.88-1.189,0.62c-0.25-0.12,0.229-1.05,0.229-1.05c-0.36-0.26-0.95-0.14-1.31-0.42  c-0.201-0.64,0.75-0.55,0.969-0.98c-0.58-0.59-0.969,0.41-1.619,0c0.039-0.12,0.55-0.3,0.49-0.73c-0.15-0.29-1.07,0.2-1.121-0.19  c-0.06-0.29,0.75-0.67,1.021-0.86l-0.43-0.05c-0.931,0.24-1.3-0.1-0.16-0.58c-0.96-1,0.63-0.72,1.08-0.99  c-1.32-0.3-2.07-0.99-1.729-1.41c0.35-0.46,1.609,0.18,1.609,0.18s-0.55-0.57-0.891-1.12c-0.35-0.57,1.44-0.56,1.761-1.35  l-0.399-0.12c-0.351,0.03-0.211-0.56-0.721,0.18c-0.32,0.45-0.891,0.22-1.37-0.01c0-0.77,0.601-1.24,1.37-1.61  c1.16-0.23,0.91-0.43,1.5-0.561c0,0-0.34-0.32-0.57-0.24c-0.229,0.07-0.449,0.08-0.449,0.08c-1.201,0.15-2.01,0.15-2.78-0.44  c0.12-0.51,0.87-0.44,1.35-0.54c-0.39-0.36-0.39-0.89-0.229-1.02c0.479-0.12,1.07,0.87,1.3,1.05c0,0-0.271-0.69,0.18-1.02  c0.62,0.24,0.4,1.3,1.38,1.25c-0.789-1.02-0.57-1.23,0.6-0.71c0.16-0.43-0.959-0.61-1.109-0.88c-0.141-0.28,0.71-0.6,0.71-0.6  s-1.63-0.28-1.95-1.46c-0.08-0.54,2.131-0.04,2.86,1.1c0.66,0.06,0.851-0.1,1.37-0.29c-0.471-0.37-0.79-0.41-1.03-1.3l-0.229,0.21  c0,0-0.19,0.16-0.74-0.04c-0.42-0.17-0.92-0.57-0.85-1.07c0.459-0.13,1.33-0.38,1.66,0.25c-0.021,0.01,0.079,0.18,0.069,0.19  c0.01,0.05,0.21,0.05,0.21,0.02c0.75-0.19,1.35,0.25,2.109-0.09c-0.139-0.37-0.08-0.44-0.6-0.69c-0.26,0.15-0.31,0.14-0.699,0.19  c-0.86-0.18-1.561-0.73-1.86-1.46c0.18-0.13,0.44,0.14,0.829,0.04c0.701,0.11,1.451,0.21,1.561,0.85c0.311-0.19,0.5-0.54,1.46-0.63  c-0.76-0.17-1.25-0.2-1.319-0.76c0.56-0.61,1.449-0.24,2.119,0.3c0.051,0.021-0.17-0.29-0.119-0.28l-0.4-0.53  c-0.25-0.39-0.07-0.82,0.311-1.09c0.199,0.04,0.449,0.38,0.539,0.76c0.801,0.87,0.131-0.76,1.141-0.92  c0.619,0.73-0.301,0.9-0.24,1.23c0.05,0.18,0.25,0.35,0.73,0.43c0.069-0.45,0.469-0.71,0.489-1.23c-0.39-0.58-0.021-1.57,0.931-1.79  c0.84,0.78-0.83,1.68,0.229,1.81c0.96-0.42-0.12-1.55,1.04-2.06c0.391,0.69-0.09,1.07,0.061,1.29c0.1,0.16,0.569,0.23,0.729,0.13  c-0.5-0.45-0.16-1.19-0.021-1.64c0.311-0.05,0.521,0.73,0.461,1.03c1-0.58,0.109,0.45,1.379,0.38c0.281-0.63-0.789-0.82-0.379-1.73  c1.189-0.3,0.97,0.49,0.97,1.01c0-0.02,0.37,0.51,0.37,0.51l0.32-0.16c0,0-0.291-0.16-0.371-0.84c-0.08-0.62,0.681-0.85,0.681-0.85  c-0.261-2.53-0.5-4.39-0.87-6.939h-44.04V24.1h35.78h0.01c4.01-10.34,6.71-20.31,8.3-30.11"/><path fill="#FFFFFF" d="M398.58,11.59c-4.221,0-7.17-2.95-7.17-7.04c0-4.17,2.9-6.89,7.17-6.89c4.24,0,7.109,2.8,7.109,6.89  C405.689,8.43,402.84,11.59,398.58,11.59L398.58,11.59z M395.029,4.55c0,2.42,1.291,4.22,3.551,4.22c2.359,0,3.48-1.83,3.48-4.22  c0-2.57-1.15-4.06-3.48-4.06C396.189,0.49,395.029,2.11,395.029,4.55L395.029,4.55z"/><path fill="#FFFFFF" d="M415.99-2.11c-1-0.12-1.99-0.23-3.01-0.23c-3.101,0-5.41,1.29-5.41,3.6c0,1.95,1.91,3.5,3.41,4.24  c1.66,0.93,2.81,1.42,2.81,2.22c0,0.87-0.97,1.311-1.931,1.311c-1.439,0-3.049-0.54-4.049-0.85V11c1.289,0.28,2.359,0.59,3.92,0.59  c3.43,0,5.68-1.43,5.68-3.98c0-2.31-1.96-3.34-3.381-4.11c-1.5-0.8-2.829-1.45-2.829-2.24c0-0.7,0.979-1.03,2.399-1.03  c0.801,0,1.58,0.18,2.391,0.31"/><path fill="#FFFFFF" d="M360.859,11.14c-0.25-1.74-0.539-4.55-0.539-6.42V-1.97c0-2.061,0.13-3.88,0.13-5.19h-4.7  c0.38,1.9,0.54,3.85,0.54,6.43v7.14c0,2.09-0.06,3.24-0.14,4.73"/><path fill="#FFFFFF" d="M368.17,16.75l-4.439,0.26c0.14-1.229,0.539-4.8,0.539-6.7V4.92c0-2.3-0.379-4.41-0.81-6.66L366.88-2  c0.21,0.59,0.29,1.18,0.479,1.87c0.861-0.95,1.94-2.21,4.551-2.21c3.76,0,6.34,3.01,6.34,7.22c0,3.89-2.49,6.71-6.18,6.71  c-2.18,0-3.2-0.72-4.17-1.28v1.54C367.9,12.57,367.9,14.78,368.17,16.75L368.17,16.75z M367.63,4.92c0,2.54,1.29,3.85,3.55,3.85  c2.291,0,3.45-1.55,3.45-3.86c0-2.6-1.479-4.42-3.61-4.42C368.73,0.49,367.63,2.29,367.63,4.92L367.63,4.92z"/><path fill="#FFFFFF" d="M388.68-2.07c-0.99-0.12-2.209-0.27-3.229-0.27c-3.101,0-5.41,1.29-5.41,3.6c0,1.95,1.899,3.5,3.41,4.24  c1.649,0.93,2.8,1.42,2.8,2.22c0,0.87-0.96,1.311-1.92,1.311c-1.45,0-3.061-0.54-4.051-0.85V11c1.291,0.28,2.361,0.59,3.921,0.59  c3.42,0,5.68-1.43,5.68-3.98c0-2.31-1.96-3.34-3.39-4.11c-1.49-0.8-2.83-1.45-2.83-2.24c0-0.7,0.99-1.03,2.41-1.03  c0.8,0,1.289,0.14,2.09,0.27"/></svg>