<svg xmlns="http://www.w3.org/2000/svg" width="416" height="32" fill="currentColor" viewBox="0 0 416 32">
  <g class="icon-sprite">
    <g class="i-lowres">
      <path d="M6 6h10v10H6z" class="Rectangle 1"/>
      <path d="M16 16h10v10H16z" class="Rectangle 2"/>
    </g>
    <g class="i-highres">
      <g class="Group 1">
        <path d="M43 11h5v5h-5z" class="Rectangle 1"/>
        <path d="M48 16h5v5h-5z" class="Rectangle 2"/>
      </g>
    </g>
    <g class="i-sharp">
      <path d="M76 12h8v8h-8z" class="Rectangle 8"/>
    </g>
    <g class="i-trans">
      <path d="M108 12h8v8h-8z" class="Rectangle 8"/>
      <path d="M116 12h8v8h-8z" class="Rectangle 9" opacity=".4"/>
      <path d="M108 20h8v8h-8z" class="Rectangle 15" opacity=".6"/>
      <path d="M116 4h8v8h-8z" class="Rectangle 14" opacity=".2"/>
      <path d="M100 12h8v8h-8z" class="Rectangle 12" opacity=".4"/>
      <path d="M100 4h8v8h-8z" class="Rectangle 13" opacity=".2"/>
      <path d="M108 4h8v8h-8z" class="Rectangle 10" opacity=".6"/>
      <path d="M100 20h8v8h-8z" class="Rectangle 11" opacity=".2"/>
    </g>
    <g class="i-play">
      <path d="m151.282 14.66-12.728-8.387c-1.085-.717-2.554.063-2.554 1.349v16.753c0 1.307 1.469 2.065 2.554 1.349l12.728-8.387c.957-.612.957-2.045 0-2.677Z" class="Vector"/>
    </g>
    <g class="i-pause">
      <path d="M173.24 6h-4.46c-.42 0-.78.358-.78.82v18.36c0 .442.34.82.78.82h4.44c.42 0 .78-.358.78-.82V6.82c0-.462-.34-.82-.76-.82Zm11 0h-4.46c-.42 0-.78.358-.78.82v18.36c0 .442.34.82.78.82h4.44c.42 0 .78-.358.78-.82V6.82c0-.462-.34-.82-.76-.82Z" class="Vector"/>
    </g>
    <g class="i-random">
      <path d="M198.875 4v2.875H196V4h2.875Zm17.25 5.75v2.875H219v8.625h-5.75v-2.875h2.875V15.5h-2.875v2.875h-2.875v2.875H207.5v-2.875h-2.875v2.875h-2.875v2.875h-2.875V21.25H196V9.75h2.875v2.875h5.75V9.75h-5.75V6.875h2.875V4h2.875v2.875h2.875V4h8.625v2.875H219V9.75h-2.875ZM201.75 15.5h-2.875v2.875h2.875V15.5Zm11.5-8.625h-2.875v5.75H207.5V15.5h2.875v-2.875h2.875v-5.75Zm-8.625 17.25h-2.875V27h5.75v-5.75h-2.875v2.875Zm5.75 0V27h2.875v-5.75h-2.875v2.875ZM196 27h2.875v-2.875H196V27Zm20.125 0H219v-2.875h-2.875V27Z" class="Vector"/>
    </g>
    <g class="i-hori">
      <path d="M227 14h26v4h-26z" class="Rectangle 3"/>
    </g>
    <g class="i-verti">
      <path d="M274 3v26h-4V3z" class="Rectangle 3"/>
    </g>
    <g class="i-erase">
      <path d="m305.125 7.525-5.2 5.2 7.2 7.2 5.2-5.2c.7-.7.7-1.9 0-2.6l-4.6-4.6c-.7-.7-1.9-.7-2.6 0Z" class="Vector"/>
      <path fill-rule="evenodd" d="M304.599 5.908c1.202-1.21 3.224-1.21 4.426 0l5.073 5.104c1.203 1.21 1.203 3.244 0 4.454l-8.263 8.315h9.137V26h-15.769c-.292 0-.573-.117-.78-.325l-4.521-4.55c-1.203-1.21-1.203-3.244 0-4.454l10.697-10.763Zm-1.883 17.873 9.823-9.884c.341-.343.341-.972 0-1.316l-5.073-5.104c-.341-.344-.967-.344-1.308 0L295.461 18.24c-.341.344-.341.973 0 1.316l4.199 4.225h3.056Z" class="Vector (Stroke)" clip-rule="evenodd"/>
    </g>
    <g class="i-reset">
      <path d="M346 17a9.998 9.998 0 0 1-17.071 7.071A9.998 9.998 0 0 1 336 7v3.993A6.007 6.007 0 1 0 342.007 17H346Z" class="Ellipse 1"/>
      <path d="m345 9-9 5.196V3.804L345 9Z" class="Polygon 1"/>
    </g>
    <g class="i-slow">
      <path d="m366.651 12.046.429 1.929c-.886.951-1.783 2.275-2.235 3.58-.142.41.228.613.34.326.478-1.24 1.307-2.635 2.184-3.585l2.861 1.18c-.203.617-.254 1.423-.254 2.23.002.785.073 1.527.098 2.092.016.34.442.322.428.026-.027-.571-.1-1.331-.1-2.118-.001-.82.072-1.63.257-2.154l3.27-.45c.908.963 1.757 2.556 2.156 3.819.093.296.479.096.408-.13-.41-1.296-1.237-2.87-2.189-3.914l1.513-1.54c.828.38 1.658 1.344 2.246 2.328.331.553.581 1.11.739 1.551.078.216.117.437.15.648.057-.025.112-.046.169-.07.405-.173.689.015.823.354.171.432-.076.747-.389.889-5.976 2.708-11.297 2.314-13.975.628-2.727-1.718-3.442-3.73-3.562-4.237-.082-.35.12-.6.412-.69.355-.111.691.019.828.362.198-.514.659-1.376 1.052-1.777.614-.628 1.449-1.13 2.341-1.277Zm3.588-1.041a7.89 7.89 0 0 1 1.239.053c1.641.2 3.16.911 3.905 2.072l-1.472 1.535-3.381.467-3.036-1.252-.438-1.98c.855-.55 2-.853 3.183-.895Z" class="Vector"/>
      <path d="M358.372 12.691a.557.557 0 0 0-.552.563c0 .31.247.562.552.562a.557.557 0 0 0 .552-.563.557.557 0 0 0-.552-.562Zm.458-1.69c.354-.007.699.07 1.005.23.886.463 1.157 1.22 1.353 2.018.252 1.017-.057 1.624.095 2.295.146.643.938 2.744 3.784 4.53 2.558 1.606 7.094 1.983 12.359.217.362-.121.711-.071.822.6.13.79.347 1.664.628 2.333.124.298.166.551.075.775-.088.223-.285.358-.518.466a5.58 5.58 0 0 1-2.247.527.824.824 0 0 1-.684-.314 1.346 1.346 0 0 1-.257-.65 13.295 13.295 0 0 1-.125-1.739c-.002-.21-.109-.32-.322-.206-1.201.64-2.678.959-4.19.905-1.53-.053-2.968-.496-4.09-1.223-.204-.132-.361-.014-.364.174-.01.623.025 1.272.119 1.886.05.329.033.592-.113.788-.144.197-.375.273-.632.311-.835.126-1.572.103-2.364-.129a1.043 1.043 0 0 1-.702-.638 1.722 1.722 0 0 1-.078-.78c.106-1.024.049-2.227.563-3.32.142-.3.15-.456-.276-.516-2.328-.326-5.077-1.834-6.091-3.215-.192-.263-.376-.595-.447-.932-.057-.27-.038-.56.366-.39.476.197 1.019.176 1.541-.032.256-.102.136-.361-.124-.268-.43.139-.91.044-1.347-.115-.353-.128-.499-.441-.55-.738-.072-.409.069-.838.274-1.155.36-.563.867-1.117 1.485-1.43A2.391 2.391 0 0 1 358.83 11Z" class="Vector"/>
    </g>
    <g class="i-fast">
      <path d="M393.864 8.334c.856-.125 1.583-.667 1.883-1.46 1.412-3.336 2.995-1.626 2.995-1.626s4.621-3.044 3.508.376c-.812 2.544-3.251 3.378-4.449 3.67-.471.125-.813.5-.899.917-.214 1.71 1.326 2.46 2.097 2.335 9.712-1.167 9.755 6.59 9.755 7.257.385.375.728.792.942 1.21.556 1.167.47 4.044-1.284 1.209a13.972 13.972 0 0 0-.514-.834c-.941.625-2.267.458-2.267.458l.085.543c.086.458-.299.917-.77.959l-2.225.125c-1.583.5-3.337 1.042-3.38-.417-.043-1.46 4.108-1.21 4.108-1.21-.428-1.167-.3-1.918-1.027-2.127l-2.439-.667c-.343-.083-.685.125-.728.459-.171 1.126-.813 3.336-1.241 4.004-.385.542-1.283.458-1.968.291-.299-.083-.428-.458-.214-.667 1.926-2.002-.042-4.254-.042-4.254-2.482-2.377-2.568-4.712-2.525-5.546a.402.402 0 0 0-.299-.376c-3.252-.542-2.953-1.918-2.953-1.918-.214-1.877 2.225-2.502 3.851-2.71Zm-.471 2.336c.3 0 .557-.25.557-.542a.56.56 0 0 0-.557-.543.56.56 0 0 0-.556.543.56.56 0 0 0 .556.542Z" class="Vector"/>
    </g>
  </g>
</svg>
