<svg xmlns="http://www.w3.org/2000/svg" width="32" height="32" fill="currentColor" viewBox="0 0 32 32">
  <g class="i-erase">
    <path d="m17.125 7.525-5.2 5.2 7.2 7.2 5.2-5.2c.7-.7.7-1.9 0-2.6l-4.6-4.6c-.7-.7-1.9-.7-2.6 0Z" class="Vector"/>
    <path fill-rule="evenodd" d="M16.599 5.908c1.202-1.21 3.224-1.21 4.426 0l5.073 5.104c1.203 1.21 1.203 3.244 0 4.454l-8.263 8.315h9.137V26H11.203a1.1 1.1 0 0 1-.78-.325l-4.521-4.55c-1.203-1.21-1.203-3.244 0-4.454L16.599 5.908ZM14.716 23.78l9.822-9.884c.342-.343.342-.972 0-1.316l-5.072-5.104c-.341-.344-.966-.344-1.308 0L7.461 18.24c-.34.344-.34.973 0 1.316l4.199 4.225h3.056Z" class="Vector (Stroke)" clip-rule="evenodd"/>
  </g>
</svg>
