<svg xmlns="http://www.w3.org/2000/svg" width="32" height="32" fill="currentColor" viewBox="0 0 32 32">
  <g class="i-fast">
    <path d="M9.25 7.768c.942-.138 1.742-.734 2.071-1.606 1.554-3.67 3.295-1.789 3.295-1.789s5.083-3.349 3.86.413c-.895 2.798-3.577 3.716-4.895 4.037-.518.138-.895.55-.989 1.01-.235 1.88 1.46 2.706 2.306 2.568 10.685-1.284 10.732 7.248 10.732 7.982.423.413.8.872 1.035 1.33.612 1.285.518 4.45-1.412 1.33a16.052 16.052 0 0 0-.565-.917c-1.035.688-2.494.505-2.494.505l.094.596c.094.505-.33 1.01-.847 1.055l-2.448.138c-1.741.55-3.67 1.147-3.718-.459-.047-1.605 4.518-1.33 4.518-1.33-.47-1.285-.33-2.11-1.13-2.34l-2.682-.734c-.377-.091-.753.138-.8.505-.188 1.239-.894 3.67-1.365 4.404-.424.596-1.412.505-2.165.321-.33-.092-.47-.505-.235-.734 2.118-2.202-.048-4.68-.048-4.68-2.73-2.614-2.824-5.183-2.776-6.1a.443.443 0 0 0-.33-.413c-3.577-.596-3.248-2.11-3.248-2.11C4.78 8.685 7.462 7.997 9.25 7.768Zm-.517 2.569c.33 0 .612-.275.612-.597a.615.615 0 0 0-.612-.596.615.615 0 0 0-.612.596c0 .322.282.597.612.597Z" class="Vector"/>
  </g>
</svg>
