<svg xmlns="http://www.w3.org/2000/svg" width="32" height="32" fill="currentColor" viewBox="0 0 32 32">
  <g class="i-random">
    <path d="M6.875 4v2.875H4V4h2.875Zm17.25 5.75v2.875H27v8.625h-5.75v-2.875h2.875V15.5H21.25v2.875h-2.875v2.875H15.5v-2.875h-2.875v2.875H9.75v2.875H6.875V21.25H4V9.75h2.875v2.875h5.75V9.75h-5.75V6.875H9.75V4h2.875v2.875H15.5V4h8.625v2.875H27V9.75h-2.875ZM9.75 15.5H6.875v2.875H9.75V15.5Zm11.5-8.625h-2.875v5.75H15.5V15.5h2.875v-2.875h2.875v-5.75Zm-8.625 17.25H9.75V27h5.75v-5.75h-2.875v2.875Zm5.75 0V27h2.875v-5.75h-2.875v2.875ZM4 27h2.875v-2.875H4V27Zm20.125 0H27v-2.875h-2.875V27Z" class="Vector"/>
  </g>
</svg>
