<svg xmlns="http://www.w3.org/2000/svg" width="32" height="32" fill="currentColor" viewBox="0 0 32 32">
  <g class="i-slow">
    <path d="m14.426 10.15.5 2.122c-1.032 1.047-2.08 2.503-2.607 3.938-.166.451.267.674.397.359.558-1.363 1.525-2.898 2.548-3.943l3.338 1.298c-.237.678-.296 1.565-.296 2.452.002.864.084 1.68.114 2.302.018.373.515.354.499.028-.032-.628-.116-1.464-.116-2.33-.002-.901.083-1.793.3-2.369l3.814-.496c1.06 1.061 2.05 2.812 2.515 4.202.109.326.56.106.477-.143-.48-1.425-1.443-3.157-2.554-4.305l1.764-1.694c.967.418 1.935 1.478 2.62 2.56.387.61.68 1.222.864 1.707.09.238.136.48.175.712.066-.027.13-.05.196-.076.474-.191.805.016.961.39.199.474-.089.82-.455.977-6.971 2.979-13.18 2.545-16.304.69-3.18-1.89-4.015-4.102-4.155-4.66-.095-.386.14-.66.481-.76.414-.122.806.021.966.399.23-.565.769-1.514 1.227-1.955.716-.69 1.69-1.243 2.73-1.404Zm4.186-1.145c.482-.016.967.004 1.446.059 1.915.22 3.687 1.002 4.555 2.278l-1.716 1.69-3.945.513-3.542-1.377-.51-2.178c.997-.606 2.333-.938 3.713-.985Z" class="Vector"/>
    <path d="M4.785 10.933a.645.645 0 0 0-.649.642c0 .356.29.643.65.643a.645.645 0 0 0 .646-.643.645.645 0 0 0-.647-.642ZM5.323 9c.414-.007.82.081 1.179.264 1.04.529 1.358 1.394 1.588 2.306.296 1.162-.067 1.857.112 2.623.171.735 1.101 3.137 4.442 5.178 3.003 1.834 8.328 2.266 14.508.247.426-.138.835-.081.965.687.153.9.407 1.901.737 2.665.145.341.195.63.089.886-.104.254-.335.409-.608.532-.891.4-1.71.572-2.638.603a.98.98 0 0 1-.804-.36 1.514 1.514 0 0 1-.3-.742 14.902 14.902 0 0 1-.148-1.987c-.002-.24-.128-.367-.378-.236-1.41.73-3.143 1.096-4.918 1.035-1.797-.06-3.484-.567-4.801-1.398-.24-.151-.425-.017-.428.2-.011.71.03 1.452.14 2.154.059.376.039.676-.133.9-.169.226-.44.312-.742.356-.98.144-1.845.118-2.775-.147a1.213 1.213 0 0 1-.824-.73 1.889 1.889 0 0 1-.091-.891c.124-1.17.057-2.545.66-3.794.167-.343.176-.521-.324-.59-2.733-.372-5.96-2.096-7.15-3.674-.226-.3-.441-.68-.525-1.065-.067-.308-.044-.64.43-.446.558.225 1.196.2 1.808-.037.301-.116.16-.413-.145-.306-.504.159-1.068.05-1.581-.13-.415-.148-.586-.505-.646-.844-.084-.468.082-.958.322-1.32.422-.644 1.017-1.277 1.743-1.634A2.87 2.87 0 0 1 5.323 9Z" class="Vector"/>
  </g>
</svg>
